<mxfile host="Electron" agent="Mozilla/5.0 (Windows NT 10.0; Win64; x64) AppleWebKit/537.36 (KHTML, like Gecko) draw.io/24.7.17 Chrome/128.0.6613.36 Electron/32.0.1 Safari/537.36" version="24.7.17">
  <diagram id="C5RBs43oDa-KdzZeNtuy" name="Page-1">
    <mxGraphModel dx="2580" dy="3530" grid="1" gridSize="10" guides="1" tooltips="1" connect="1" arrows="1" fold="1" page="0" pageScale="1" pageWidth="827" pageHeight="1169" math="0" shadow="0">
      <root>
        <mxCell id="WIyWlLk6GJQsqaUBKTNV-0" />
        <mxCell id="WIyWlLk6GJQsqaUBKTNV-1" parent="WIyWlLk6GJQsqaUBKTNV-0" />
        <mxCell id="o5AYfgIye7YQR3OT79Ui-2" value="" style="edgeStyle=orthogonalEdgeStyle;rounded=0;orthogonalLoop=1;jettySize=auto;html=1;" parent="WIyWlLk6GJQsqaUBKTNV-1" source="o5AYfgIye7YQR3OT79Ui-0" edge="1">
          <mxGeometry relative="1" as="geometry">
            <mxPoint x="90.0666666666666" y="-2220" as="targetPoint" />
          </mxGeometry>
        </mxCell>
        <mxCell id="o5AYfgIye7YQR3OT79Ui-0" value="Menu Utama" style="rounded=0;whiteSpace=wrap;html=1;" parent="WIyWlLk6GJQsqaUBKTNV-1" vertex="1">
          <mxGeometry x="30" y="-2310" width="120" height="60" as="geometry" />
        </mxCell>
        <mxCell id="o5AYfgIye7YQR3OT79Ui-17" value="" style="edgeStyle=orthogonalEdgeStyle;rounded=0;orthogonalLoop=1;jettySize=auto;html=1;" parent="WIyWlLk6GJQsqaUBKTNV-1" source="o5AYfgIye7YQR3OT79Ui-8" target="o5AYfgIye7YQR3OT79Ui-16" edge="1">
          <mxGeometry relative="1" as="geometry" />
        </mxCell>
        <mxCell id="o5AYfgIye7YQR3OT79Ui-8" value="Pilih opsi (1/2/3):&lt;div&gt;1. Login&lt;/div&gt;&lt;div&gt;2. Registrasi&lt;/div&gt;&lt;div&gt;3. Keluar&lt;/div&gt;" style="shape=parallelogram;perimeter=parallelogramPerimeter;whiteSpace=wrap;html=1;fixedSize=1;rounded=0;" parent="WIyWlLk6GJQsqaUBKTNV-1" vertex="1">
          <mxGeometry y="-2220" width="180" height="110" as="geometry" />
        </mxCell>
        <mxCell id="o5AYfgIye7YQR3OT79Ui-15" style="edgeStyle=orthogonalEdgeStyle;rounded=0;orthogonalLoop=1;jettySize=auto;html=1;exitX=0.5;exitY=1;exitDx=0;exitDy=0;" parent="WIyWlLk6GJQsqaUBKTNV-1" source="o5AYfgIye7YQR3OT79Ui-8" target="o5AYfgIye7YQR3OT79Ui-8" edge="1">
          <mxGeometry relative="1" as="geometry" />
        </mxCell>
        <mxCell id="o5AYfgIye7YQR3OT79Ui-25" value="" style="edgeStyle=orthogonalEdgeStyle;rounded=0;orthogonalLoop=1;jettySize=auto;html=1;" parent="WIyWlLk6GJQsqaUBKTNV-1" source="o5AYfgIye7YQR3OT79Ui-16" target="o5AYfgIye7YQR3OT79Ui-24" edge="1">
          <mxGeometry relative="1" as="geometry" />
        </mxCell>
        <mxCell id="oXb07rZDEVNdJx9yFHIo-4" value="no" style="edgeLabel;html=1;align=center;verticalAlign=middle;resizable=0;points=[];" parent="o5AYfgIye7YQR3OT79Ui-25" vertex="1" connectable="0">
          <mxGeometry x="-0.5356" y="-6" relative="1" as="geometry">
            <mxPoint as="offset" />
          </mxGeometry>
        </mxCell>
        <mxCell id="o5AYfgIye7YQR3OT79Ui-16" value="Pilihan == &#39;1&#39;" style="rhombus;whiteSpace=wrap;html=1;rounded=0;" parent="WIyWlLk6GJQsqaUBKTNV-1" vertex="1">
          <mxGeometry x="45" y="-2060" width="90" height="100" as="geometry" />
        </mxCell>
        <mxCell id="o5AYfgIye7YQR3OT79Ui-37" value="" style="edgeStyle=orthogonalEdgeStyle;rounded=0;orthogonalLoop=1;jettySize=auto;html=1;" parent="WIyWlLk6GJQsqaUBKTNV-1" target="o5AYfgIye7YQR3OT79Ui-0" edge="1">
          <mxGeometry relative="1" as="geometry">
            <mxPoint x="90" y="-2380" as="sourcePoint" />
          </mxGeometry>
        </mxCell>
        <mxCell id="o5AYfgIye7YQR3OT79Ui-33" value="" style="edgeStyle=orthogonalEdgeStyle;rounded=0;orthogonalLoop=1;jettySize=auto;html=1;" parent="WIyWlLk6GJQsqaUBKTNV-1" source="o5AYfgIye7YQR3OT79Ui-24" target="o5AYfgIye7YQR3OT79Ui-32" edge="1">
          <mxGeometry relative="1" as="geometry" />
        </mxCell>
        <mxCell id="o5AYfgIye7YQR3OT79Ui-53" value="no" style="edgeLabel;html=1;align=center;verticalAlign=middle;resizable=0;points=[];" parent="o5AYfgIye7YQR3OT79Ui-33" vertex="1" connectable="0">
          <mxGeometry x="-0.1" y="3" relative="1" as="geometry">
            <mxPoint as="offset" />
          </mxGeometry>
        </mxCell>
        <mxCell id="o5AYfgIye7YQR3OT79Ui-24" value="Pilihan == &#39;2&#39;" style="rhombus;whiteSpace=wrap;html=1;rounded=0;" parent="WIyWlLk6GJQsqaUBKTNV-1" vertex="1">
          <mxGeometry x="-300" y="-1950" width="90" height="100" as="geometry" />
        </mxCell>
        <mxCell id="o5AYfgIye7YQR3OT79Ui-32" value="Pilih: 3. Keluar&lt;div&gt;Program berhenti&lt;/div&gt;" style="whiteSpace=wrap;html=1;rounded=0;" parent="WIyWlLk6GJQsqaUBKTNV-1" vertex="1">
          <mxGeometry x="-490" y="-1830" width="120" height="60" as="geometry" />
        </mxCell>
        <mxCell id="o5AYfgIye7YQR3OT79Ui-39" value="" style="edgeStyle=orthogonalEdgeStyle;rounded=0;orthogonalLoop=1;jettySize=auto;html=1;" parent="WIyWlLk6GJQsqaUBKTNV-1" source="o5AYfgIye7YQR3OT79Ui-35" target="o5AYfgIye7YQR3OT79Ui-38" edge="1">
          <mxGeometry relative="1" as="geometry" />
        </mxCell>
        <mxCell id="o5AYfgIye7YQR3OT79Ui-54" value="yes" style="edgeLabel;html=1;align=center;verticalAlign=middle;resizable=0;points=[];" parent="o5AYfgIye7YQR3OT79Ui-39" vertex="1" connectable="0">
          <mxGeometry x="-0.7922" y="-3" relative="1" as="geometry">
            <mxPoint as="offset" />
          </mxGeometry>
        </mxCell>
        <mxCell id="o5AYfgIye7YQR3OT79Ui-72" value="" style="edgeStyle=orthogonalEdgeStyle;rounded=0;orthogonalLoop=1;jettySize=auto;html=1;" parent="WIyWlLk6GJQsqaUBKTNV-1" source="o5AYfgIye7YQR3OT79Ui-35" target="o5AYfgIye7YQR3OT79Ui-71" edge="1">
          <mxGeometry relative="1" as="geometry" />
        </mxCell>
        <mxCell id="o5AYfgIye7YQR3OT79Ui-73" value="no" style="edgeLabel;html=1;align=center;verticalAlign=middle;resizable=0;points=[];" parent="o5AYfgIye7YQR3OT79Ui-72" vertex="1" connectable="0">
          <mxGeometry x="-0.4727" y="-2" relative="1" as="geometry">
            <mxPoint as="offset" />
          </mxGeometry>
        </mxCell>
        <mxCell id="o5AYfgIye7YQR3OT79Ui-35" value="Username = benar&lt;div&gt;password = benar&lt;/div&gt;" style="rhombus;whiteSpace=wrap;html=1;rounded=0;" parent="WIyWlLk6GJQsqaUBKTNV-1" vertex="1">
          <mxGeometry x="297.5" y="-1860" width="155" height="120" as="geometry" />
        </mxCell>
        <mxCell id="o5AYfgIye7YQR3OT79Ui-41" value="" style="edgeStyle=orthogonalEdgeStyle;rounded=0;orthogonalLoop=1;jettySize=auto;html=1;" parent="WIyWlLk6GJQsqaUBKTNV-1" source="oXb07rZDEVNdJx9yFHIo-64" target="o5AYfgIye7YQR3OT79Ui-40" edge="1">
          <mxGeometry relative="1" as="geometry" />
        </mxCell>
        <mxCell id="o5AYfgIye7YQR3OT79Ui-38" value="Login berhasil. Peran : admin atau user" style="whiteSpace=wrap;html=1;rounded=0;" parent="WIyWlLk6GJQsqaUBKTNV-1" vertex="1">
          <mxGeometry x="550" y="-1700" width="200" height="60" as="geometry" />
        </mxCell>
        <mxCell id="o5AYfgIye7YQR3OT79Ui-40" value="peran = admin" style="rhombus;whiteSpace=wrap;html=1;rounded=0;" parent="WIyWlLk6GJQsqaUBKTNV-1" vertex="1">
          <mxGeometry x="600" y="-1512.5" width="100" height="90" as="geometry" />
        </mxCell>
        <mxCell id="oXb07rZDEVNdJx9yFHIo-71" style="edgeStyle=orthogonalEdgeStyle;rounded=0;orthogonalLoop=1;jettySize=auto;html=1;exitX=0;exitY=0.5;exitDx=0;exitDy=0;entryX=0.25;entryY=0;entryDx=0;entryDy=0;" parent="WIyWlLk6GJQsqaUBKTNV-1" source="o5AYfgIye7YQR3OT79Ui-71" target="oXb07rZDEVNdJx9yFHIo-56" edge="1">
          <mxGeometry relative="1" as="geometry" />
        </mxCell>
        <mxCell id="o5AYfgIye7YQR3OT79Ui-71" value="Username atau Password salah. Silahkan coba lagi." style="whiteSpace=wrap;html=1;rounded=0;" parent="WIyWlLk6GJQsqaUBKTNV-1" vertex="1">
          <mxGeometry x="160" y="-1730" width="120" height="60" as="geometry" />
        </mxCell>
        <mxCell id="o5AYfgIye7YQR3OT79Ui-80" value="" style="edgeStyle=orthogonalEdgeStyle;rounded=0;orthogonalLoop=1;jettySize=auto;html=1;" parent="WIyWlLk6GJQsqaUBKTNV-1" source="o5AYfgIye7YQR3OT79Ui-74" target="o5AYfgIye7YQR3OT79Ui-79" edge="1">
          <mxGeometry relative="1" as="geometry" />
        </mxCell>
        <mxCell id="o5AYfgIye7YQR3OT79Ui-81" value="yes" style="edgeLabel;html=1;align=center;verticalAlign=middle;resizable=0;points=[];" parent="o5AYfgIye7YQR3OT79Ui-80" vertex="1" connectable="0">
          <mxGeometry x="-0.434" relative="1" as="geometry">
            <mxPoint as="offset" />
          </mxGeometry>
        </mxCell>
        <mxCell id="oXb07rZDEVNdJx9yFHIo-54" style="edgeStyle=orthogonalEdgeStyle;rounded=0;orthogonalLoop=1;jettySize=auto;html=1;exitX=0;exitY=0.5;exitDx=0;exitDy=0;entryX=0.5;entryY=0;entryDx=0;entryDy=0;" parent="WIyWlLk6GJQsqaUBKTNV-1" source="o5AYfgIye7YQR3OT79Ui-74" target="o5AYfgIye7YQR3OT79Ui-76" edge="1">
          <mxGeometry relative="1" as="geometry" />
        </mxCell>
        <mxCell id="oXb07rZDEVNdJx9yFHIo-55" value="no" style="edgeLabel;html=1;align=center;verticalAlign=middle;resizable=0;points=[];" parent="oXb07rZDEVNdJx9yFHIo-54" vertex="1" connectable="0">
          <mxGeometry x="-0.7024" y="-1" relative="1" as="geometry">
            <mxPoint x="1" as="offset" />
          </mxGeometry>
        </mxCell>
        <mxCell id="o5AYfgIye7YQR3OT79Ui-74" value="Password &amp;lt; 5" style="rhombus;whiteSpace=wrap;html=1;rounded=0;" parent="WIyWlLk6GJQsqaUBKTNV-1" vertex="1">
          <mxGeometry x="-275" y="-1630" width="95" height="80" as="geometry" />
        </mxCell>
        <mxCell id="oXb07rZDEVNdJx9yFHIo-67" value="" style="edgeStyle=orthogonalEdgeStyle;rounded=0;orthogonalLoop=1;jettySize=auto;html=1;" parent="WIyWlLk6GJQsqaUBKTNV-1" source="o5AYfgIye7YQR3OT79Ui-76" target="oXb07rZDEVNdJx9yFHIo-66" edge="1">
          <mxGeometry relative="1" as="geometry" />
        </mxCell>
        <mxCell id="o5AYfgIye7YQR3OT79Ui-76" value="Registrasi berhasil. Peran = user" style="whiteSpace=wrap;html=1;rounded=0;" parent="WIyWlLk6GJQsqaUBKTNV-1" vertex="1">
          <mxGeometry x="-400" y="-1547.5" width="120" height="60" as="geometry" />
        </mxCell>
        <mxCell id="oXb07rZDEVNdJx9yFHIo-68" style="edgeStyle=orthogonalEdgeStyle;rounded=0;orthogonalLoop=1;jettySize=auto;html=1;exitX=1;exitY=0.5;exitDx=0;exitDy=0;entryX=1;entryY=0.5;entryDx=0;entryDy=0;" parent="WIyWlLk6GJQsqaUBKTNV-1" source="o5AYfgIye7YQR3OT79Ui-79" target="oXb07rZDEVNdJx9yFHIo-60" edge="1">
          <mxGeometry relative="1" as="geometry">
            <Array as="points">
              <mxPoint x="10" y="-1430" />
              <mxPoint x="10" y="-1820" />
            </Array>
          </mxGeometry>
        </mxCell>
        <mxCell id="o5AYfgIye7YQR3OT79Ui-79" value="Password minimal 5 karakter. Silahkan coba lagi." style="whiteSpace=wrap;html=1;rounded=0;" parent="WIyWlLk6GJQsqaUBKTNV-1" vertex="1">
          <mxGeometry x="-170" y="-1460" width="120" height="60" as="geometry" />
        </mxCell>
        <mxCell id="oXb07rZDEVNdJx9yFHIo-0" value="Start" style="strokeWidth=2;html=1;shape=mxgraph.flowchart.start_1;whiteSpace=wrap;" parent="WIyWlLk6GJQsqaUBKTNV-1" vertex="1">
          <mxGeometry x="40" y="-2440" width="100" height="60" as="geometry" />
        </mxCell>
        <mxCell id="oXb07rZDEVNdJx9yFHIo-15" value="" style="edgeStyle=orthogonalEdgeStyle;rounded=0;orthogonalLoop=1;jettySize=auto;html=1;" parent="WIyWlLk6GJQsqaUBKTNV-1" source="oXb07rZDEVNdJx9yFHIo-12" target="oXb07rZDEVNdJx9yFHIo-14" edge="1">
          <mxGeometry relative="1" as="geometry" />
        </mxCell>
        <mxCell id="oXb07rZDEVNdJx9yFHIo-12" value="Pilh: 1. Tambah&lt;div&gt;Masukkan website&lt;/div&gt;&lt;div&gt;Masukkan username&lt;/div&gt;&lt;div&gt;Masukkan password&lt;/div&gt;" style="whiteSpace=wrap;html=1;rounded=0;" parent="WIyWlLk6GJQsqaUBKTNV-1" vertex="1">
          <mxGeometry x="845" y="-1210" width="140" height="75" as="geometry" />
        </mxCell>
        <mxCell id="oXb07rZDEVNdJx9yFHIo-17" value="" style="edgeStyle=orthogonalEdgeStyle;rounded=0;orthogonalLoop=1;jettySize=auto;html=1;" parent="WIyWlLk6GJQsqaUBKTNV-1" source="oXb07rZDEVNdJx9yFHIo-14" target="oXb07rZDEVNdJx9yFHIo-16" edge="1">
          <mxGeometry relative="1" as="geometry" />
        </mxCell>
        <mxCell id="oXb07rZDEVNdJx9yFHIo-14" value="Pilih: 2. Lihat&lt;div&gt;Tampilkan daftar password&lt;/div&gt;" style="whiteSpace=wrap;html=1;rounded=0;" parent="WIyWlLk6GJQsqaUBKTNV-1" vertex="1">
          <mxGeometry x="840" y="-1090" width="150" height="60" as="geometry" />
        </mxCell>
        <mxCell id="oXb07rZDEVNdJx9yFHIo-19" value="" style="edgeStyle=orthogonalEdgeStyle;rounded=0;orthogonalLoop=1;jettySize=auto;html=1;" parent="WIyWlLk6GJQsqaUBKTNV-1" source="oXb07rZDEVNdJx9yFHIo-16" target="oXb07rZDEVNdJx9yFHIo-18" edge="1">
          <mxGeometry relative="1" as="geometry" />
        </mxCell>
        <mxCell id="oXb07rZDEVNdJx9yFHIo-16" value="Pilih: 3. Update&lt;div&gt;Tampilkan daftar password&lt;/div&gt;&lt;div&gt;Pilih yang ingin diupdate&lt;br&gt;&lt;div&gt;Masukkan website baru&lt;/div&gt;&lt;div&gt;Masukkan username baru&lt;/div&gt;&lt;div&gt;Masukkan password baru&lt;/div&gt;&lt;/div&gt;&lt;div&gt;Pasword berhasil diupdate&lt;/div&gt;" style="whiteSpace=wrap;html=1;rounded=0;" parent="WIyWlLk6GJQsqaUBKTNV-1" vertex="1">
          <mxGeometry x="830" y="-980" width="170" height="130" as="geometry" />
        </mxCell>
        <mxCell id="oXb07rZDEVNdJx9yFHIo-21" value="" style="edgeStyle=orthogonalEdgeStyle;rounded=0;orthogonalLoop=1;jettySize=auto;html=1;" parent="WIyWlLk6GJQsqaUBKTNV-1" source="oXb07rZDEVNdJx9yFHIo-18" target="oXb07rZDEVNdJx9yFHIo-20" edge="1">
          <mxGeometry relative="1" as="geometry" />
        </mxCell>
        <mxCell id="oXb07rZDEVNdJx9yFHIo-18" value="Pilih: 4. Hapus&lt;div&gt;Tampilkan daftar password&lt;/div&gt;&lt;div&gt;Pilih yang ingin dihapus&lt;/div&gt;&lt;div&gt;Password berhasil dihapus&lt;/div&gt;" style="whiteSpace=wrap;html=1;rounded=0;" parent="WIyWlLk6GJQsqaUBKTNV-1" vertex="1">
          <mxGeometry x="840" y="-815" width="150" height="95" as="geometry" />
        </mxCell>
        <mxCell id="oXb07rZDEVNdJx9yFHIo-74" style="edgeStyle=orthogonalEdgeStyle;rounded=0;orthogonalLoop=1;jettySize=auto;html=1;exitX=0.5;exitY=1;exitDx=0;exitDy=0;entryX=1;entryY=0.5;entryDx=0;entryDy=0;" parent="WIyWlLk6GJQsqaUBKTNV-1" source="oXb07rZDEVNdJx9yFHIo-20" target="oXb07rZDEVNdJx9yFHIo-72" edge="1">
          <mxGeometry relative="1" as="geometry" />
        </mxCell>
        <mxCell id="oXb07rZDEVNdJx9yFHIo-20" value="Pilih: 5. Logout" style="whiteSpace=wrap;html=1;rounded=0;" parent="WIyWlLk6GJQsqaUBKTNV-1" vertex="1">
          <mxGeometry x="855" y="-670" width="120" height="60" as="geometry" />
        </mxCell>
        <mxCell id="oXb07rZDEVNdJx9yFHIo-28" value="" style="edgeStyle=orthogonalEdgeStyle;rounded=0;orthogonalLoop=1;jettySize=auto;html=1;" parent="WIyWlLk6GJQsqaUBKTNV-1" source="oXb07rZDEVNdJx9yFHIo-25" target="oXb07rZDEVNdJx9yFHIo-27" edge="1">
          <mxGeometry relative="1" as="geometry" />
        </mxCell>
        <mxCell id="oXb07rZDEVNdJx9yFHIo-25" value="Pilh: 1. Tambah&lt;div&gt;Masukkan website&lt;/div&gt;&lt;div&gt;Masukkan username&lt;/div&gt;&lt;div&gt;Masukkan password&lt;/div&gt;" style="whiteSpace=wrap;html=1;rounded=0;" parent="WIyWlLk6GJQsqaUBKTNV-1" vertex="1">
          <mxGeometry x="432.5" y="-1242.5" width="125" height="62.5" as="geometry" />
        </mxCell>
        <mxCell id="oXb07rZDEVNdJx9yFHIo-30" value="" style="edgeStyle=orthogonalEdgeStyle;rounded=0;orthogonalLoop=1;jettySize=auto;html=1;" parent="WIyWlLk6GJQsqaUBKTNV-1" source="oXb07rZDEVNdJx9yFHIo-27" target="oXb07rZDEVNdJx9yFHIo-29" edge="1">
          <mxGeometry relative="1" as="geometry" />
        </mxCell>
        <mxCell id="oXb07rZDEVNdJx9yFHIo-27" value="Pilih: 2. Lihat&lt;div&gt;Tampilkan daftar password&lt;/div&gt;" style="whiteSpace=wrap;html=1;rounded=0;" parent="WIyWlLk6GJQsqaUBKTNV-1" vertex="1">
          <mxGeometry x="417.5" y="-1130" width="155" height="56.25" as="geometry" />
        </mxCell>
        <mxCell id="oXb07rZDEVNdJx9yFHIo-73" style="edgeStyle=orthogonalEdgeStyle;rounded=0;orthogonalLoop=1;jettySize=auto;html=1;exitX=0.5;exitY=1;exitDx=0;exitDy=0;entryX=0;entryY=0.5;entryDx=0;entryDy=0;" parent="WIyWlLk6GJQsqaUBKTNV-1" source="oXb07rZDEVNdJx9yFHIo-29" target="oXb07rZDEVNdJx9yFHIo-72" edge="1">
          <mxGeometry relative="1" as="geometry" />
        </mxCell>
        <mxCell id="oXb07rZDEVNdJx9yFHIo-29" value="Pilih: 3. Logout" style="whiteSpace=wrap;html=1;rounded=0;" parent="WIyWlLk6GJQsqaUBKTNV-1" vertex="1">
          <mxGeometry x="437.5" y="-1020" width="115" height="65.62" as="geometry" />
        </mxCell>
        <mxCell id="oXb07rZDEVNdJx9yFHIo-34" value="" style="edgeStyle=orthogonalEdgeStyle;rounded=0;orthogonalLoop=1;jettySize=auto;html=1;" parent="WIyWlLk6GJQsqaUBKTNV-1" source="o5AYfgIye7YQR3OT79Ui-40" target="oXb07rZDEVNdJx9yFHIo-33" edge="1">
          <mxGeometry relative="1" as="geometry">
            <mxPoint x="600" y="-1542" as="sourcePoint" />
            <mxPoint x="465" y="-1445" as="targetPoint" />
          </mxGeometry>
        </mxCell>
        <mxCell id="oXb07rZDEVNdJx9yFHIo-35" value="no" style="edgeLabel;html=1;align=center;verticalAlign=middle;resizable=0;points=[];" parent="oXb07rZDEVNdJx9yFHIo-34" vertex="1" connectable="0">
          <mxGeometry x="-0.4401" y="-1" relative="1" as="geometry">
            <mxPoint as="offset" />
          </mxGeometry>
        </mxCell>
        <mxCell id="oXb07rZDEVNdJx9yFHIo-39" style="edgeStyle=orthogonalEdgeStyle;rounded=0;orthogonalLoop=1;jettySize=auto;html=1;exitX=0.5;exitY=1;exitDx=0;exitDy=0;" parent="WIyWlLk6GJQsqaUBKTNV-1" source="oXb07rZDEVNdJx9yFHIo-33" target="oXb07rZDEVNdJx9yFHIo-25" edge="1">
          <mxGeometry relative="1" as="geometry" />
        </mxCell>
        <mxCell id="oXb07rZDEVNdJx9yFHIo-33" value="Pilih opsi (1/2/3):&lt;div&gt;1. Tambah Password&lt;/div&gt;&lt;div&gt;2. Lihat Password&lt;/div&gt;&lt;div&gt;3. Logout&lt;/div&gt;" style="shape=parallelogram;html=1;strokeWidth=2;perimeter=parallelogramPerimeter;whiteSpace=wrap;rounded=1;arcSize=12;size=0.23;" parent="WIyWlLk6GJQsqaUBKTNV-1" vertex="1">
          <mxGeometry x="402.5" y="-1380" width="185" height="88.75" as="geometry" />
        </mxCell>
        <mxCell id="oXb07rZDEVNdJx9yFHIo-41" value="" style="edgeStyle=orthogonalEdgeStyle;rounded=0;orthogonalLoop=1;jettySize=auto;html=1;" parent="WIyWlLk6GJQsqaUBKTNV-1" source="o5AYfgIye7YQR3OT79Ui-40" target="oXb07rZDEVNdJx9yFHIo-40" edge="1">
          <mxGeometry relative="1" as="geometry">
            <mxPoint x="700" y="-1542" as="sourcePoint" />
            <mxPoint x="940" y="-1470" as="targetPoint" />
          </mxGeometry>
        </mxCell>
        <mxCell id="oXb07rZDEVNdJx9yFHIo-42" value="yes" style="edgeLabel;html=1;align=center;verticalAlign=middle;resizable=0;points=[];" parent="oXb07rZDEVNdJx9yFHIo-41" vertex="1" connectable="0">
          <mxGeometry x="-0.2522" y="-1" relative="1" as="geometry">
            <mxPoint as="offset" />
          </mxGeometry>
        </mxCell>
        <mxCell id="oXb07rZDEVNdJx9yFHIo-43" style="edgeStyle=orthogonalEdgeStyle;rounded=0;orthogonalLoop=1;jettySize=auto;html=1;exitX=0.5;exitY=1;exitDx=0;exitDy=0;" parent="WIyWlLk6GJQsqaUBKTNV-1" source="oXb07rZDEVNdJx9yFHIo-40" target="oXb07rZDEVNdJx9yFHIo-12" edge="1">
          <mxGeometry relative="1" as="geometry" />
        </mxCell>
        <mxCell id="oXb07rZDEVNdJx9yFHIo-40" value="Pilih opsi (1/2/3/4/5):&lt;div&gt;1. Tambah Password&lt;/div&gt;&lt;div&gt;2. Lihat Password&lt;/div&gt;&lt;div&gt;3. Update Password&lt;/div&gt;&lt;div&gt;4. Hapus Password&lt;/div&gt;&lt;div&gt;5. Logout&amp;nbsp;&lt;/div&gt;" style="shape=parallelogram;html=1;strokeWidth=2;perimeter=parallelogramPerimeter;whiteSpace=wrap;rounded=1;arcSize=12;size=0.23;" parent="WIyWlLk6GJQsqaUBKTNV-1" vertex="1">
          <mxGeometry x="805" y="-1380" width="220" height="125" as="geometry" />
        </mxCell>
        <mxCell id="oXb07rZDEVNdJx9yFHIo-48" value="End" style="strokeWidth=2;html=1;shape=mxgraph.flowchart.start_1;whiteSpace=wrap;" parent="WIyWlLk6GJQsqaUBKTNV-1" vertex="1">
          <mxGeometry x="390" y="-350" width="100" height="60" as="geometry" />
        </mxCell>
        <mxCell id="oXb07rZDEVNdJx9yFHIo-49" style="edgeStyle=orthogonalEdgeStyle;rounded=0;orthogonalLoop=1;jettySize=auto;html=1;exitX=0.5;exitY=1;exitDx=0;exitDy=0;entryX=0;entryY=0.5;entryDx=0;entryDy=0;entryPerimeter=0;" parent="WIyWlLk6GJQsqaUBKTNV-1" source="o5AYfgIye7YQR3OT79Ui-32" target="oXb07rZDEVNdJx9yFHIo-48" edge="1">
          <mxGeometry relative="1" as="geometry" />
        </mxCell>
        <mxCell id="oXb07rZDEVNdJx9yFHIo-51" value="" style="edgeStyle=orthogonalEdgeStyle;rounded=0;orthogonalLoop=1;jettySize=auto;html=1;" parent="WIyWlLk6GJQsqaUBKTNV-1" source="oXb07rZDEVNdJx9yFHIo-60" target="oXb07rZDEVNdJx9yFHIo-50" edge="1">
          <mxGeometry relative="1" as="geometry">
            <mxPoint x="-170" y="-1900" as="sourcePoint" />
            <mxPoint x="-45" y="-1829.9999999999998" as="targetPoint" />
          </mxGeometry>
        </mxCell>
        <mxCell id="oXb07rZDEVNdJx9yFHIo-50" value="Masukkan Username&lt;div&gt;Masukkan Password&lt;/div&gt;" style="shape=parallelogram;html=1;strokeWidth=2;perimeter=parallelogramPerimeter;whiteSpace=wrap;rounded=1;arcSize=12;size=0.23;" parent="WIyWlLk6GJQsqaUBKTNV-1" vertex="1">
          <mxGeometry x="-180" y="-1770" width="190" height="50" as="geometry" />
        </mxCell>
        <mxCell id="oXb07rZDEVNdJx9yFHIo-57" value="" style="edgeStyle=orthogonalEdgeStyle;rounded=0;orthogonalLoop=1;jettySize=auto;html=1;" parent="WIyWlLk6GJQsqaUBKTNV-1" source="o5AYfgIye7YQR3OT79Ui-16" target="oXb07rZDEVNdJx9yFHIo-56" edge="1">
          <mxGeometry relative="1" as="geometry">
            <mxPoint x="135" y="-2010" as="sourcePoint" />
            <mxPoint x="375" y="-1950" as="targetPoint" />
          </mxGeometry>
        </mxCell>
        <mxCell id="oXb07rZDEVNdJx9yFHIo-58" value="yes" style="edgeLabel;html=1;align=center;verticalAlign=middle;resizable=0;points=[];" parent="oXb07rZDEVNdJx9yFHIo-57" vertex="1" connectable="0">
          <mxGeometry x="-0.7001" y="2" relative="1" as="geometry">
            <mxPoint x="1" as="offset" />
          </mxGeometry>
        </mxCell>
        <mxCell id="oXb07rZDEVNdJx9yFHIo-59" style="edgeStyle=orthogonalEdgeStyle;rounded=0;orthogonalLoop=1;jettySize=auto;html=1;exitX=0.5;exitY=1;exitDx=0;exitDy=0;" parent="WIyWlLk6GJQsqaUBKTNV-1" source="oXb07rZDEVNdJx9yFHIo-56" target="o5AYfgIye7YQR3OT79Ui-35" edge="1">
          <mxGeometry relative="1" as="geometry" />
        </mxCell>
        <mxCell id="oXb07rZDEVNdJx9yFHIo-56" value="Masukkan Username&lt;div&gt;Masukkan Password&lt;/div&gt;" style="shape=parallelogram;html=1;strokeWidth=2;perimeter=parallelogramPerimeter;whiteSpace=wrap;rounded=1;arcSize=12;size=0.23;" parent="WIyWlLk6GJQsqaUBKTNV-1" vertex="1">
          <mxGeometry x="280" y="-1950" width="190" height="60" as="geometry" />
        </mxCell>
        <mxCell id="oXb07rZDEVNdJx9yFHIo-61" value="" style="edgeStyle=orthogonalEdgeStyle;rounded=0;orthogonalLoop=1;jettySize=auto;html=1;" parent="WIyWlLk6GJQsqaUBKTNV-1" source="o5AYfgIye7YQR3OT79Ui-24" target="oXb07rZDEVNdJx9yFHIo-60" edge="1">
          <mxGeometry relative="1" as="geometry">
            <mxPoint x="-170" y="-1900" as="sourcePoint" />
            <mxPoint x="-45" y="-1810" as="targetPoint" />
          </mxGeometry>
        </mxCell>
        <mxCell id="oXb07rZDEVNdJx9yFHIo-62" value="yes" style="edgeLabel;html=1;align=center;verticalAlign=middle;resizable=0;points=[];" parent="oXb07rZDEVNdJx9yFHIo-61" vertex="1" connectable="0">
          <mxGeometry x="-0.0987" y="3" relative="1" as="geometry">
            <mxPoint x="-1" as="offset" />
          </mxGeometry>
        </mxCell>
        <mxCell id="oXb07rZDEVNdJx9yFHIo-60" value="Registrasi pengguna baru" style="whiteSpace=wrap;html=1;rounded=0;" parent="WIyWlLk6GJQsqaUBKTNV-1" vertex="1">
          <mxGeometry x="-148.75" y="-1840" width="127.5" height="40" as="geometry" />
        </mxCell>
        <mxCell id="oXb07rZDEVNdJx9yFHIo-65" value="" style="edgeStyle=orthogonalEdgeStyle;rounded=0;orthogonalLoop=1;jettySize=auto;html=1;" parent="WIyWlLk6GJQsqaUBKTNV-1" source="o5AYfgIye7YQR3OT79Ui-38" target="oXb07rZDEVNdJx9yFHIo-64" edge="1">
          <mxGeometry relative="1" as="geometry">
            <mxPoint x="650" y="-1640" as="sourcePoint" />
            <mxPoint x="650" y="-1540" as="targetPoint" />
          </mxGeometry>
        </mxCell>
        <mxCell id="oXb07rZDEVNdJx9yFHIo-64" value="Program Sistem Manajemen Password" style="whiteSpace=wrap;html=1;rounded=0;" parent="WIyWlLk6GJQsqaUBKTNV-1" vertex="1">
          <mxGeometry x="587.5" y="-1610" width="125" height="62.5" as="geometry" />
        </mxCell>
        <mxCell id="oXb07rZDEVNdJx9yFHIo-88" style="edgeStyle=orthogonalEdgeStyle;rounded=0;orthogonalLoop=1;jettySize=auto;html=1;exitX=0.5;exitY=1;exitDx=0;exitDy=0;entryX=0;entryY=0.5;entryDx=0;entryDy=0;" parent="WIyWlLk6GJQsqaUBKTNV-1" source="oXb07rZDEVNdJx9yFHIo-66" target="o5AYfgIye7YQR3OT79Ui-0" edge="1">
          <mxGeometry relative="1" as="geometry">
            <mxPoint x="-255" y="-1270" as="targetPoint" />
            <Array as="points">
              <mxPoint x="-340" y="-1260" />
              <mxPoint x="-530" y="-1260" />
              <mxPoint x="-530" y="-2280" />
            </Array>
          </mxGeometry>
        </mxCell>
        <mxCell id="oXb07rZDEVNdJx9yFHIo-66" value="Kembali ke Menu Utama" style="whiteSpace=wrap;html=1;rounded=0;" parent="WIyWlLk6GJQsqaUBKTNV-1" vertex="1">
          <mxGeometry x="-400" y="-1422.5" width="120" height="60" as="geometry" />
        </mxCell>
        <mxCell id="oXb07rZDEVNdJx9yFHIo-85" style="edgeStyle=orthogonalEdgeStyle;rounded=0;orthogonalLoop=1;jettySize=auto;html=1;exitX=0.5;exitY=1;exitDx=0;exitDy=0;entryX=1;entryY=0.5;entryDx=0;entryDy=0;" parent="WIyWlLk6GJQsqaUBKTNV-1" target="o5AYfgIye7YQR3OT79Ui-0" edge="1">
          <mxGeometry relative="1" as="geometry">
            <mxPoint x="450" y="-2120" as="targetPoint" />
            <mxPoint x="655" y="-510" as="sourcePoint" />
            <Array as="points">
              <mxPoint x="655" y="-420" />
              <mxPoint x="1260" y="-420" />
              <mxPoint x="1260" y="-2280" />
            </Array>
          </mxGeometry>
        </mxCell>
        <mxCell id="oXb07rZDEVNdJx9yFHIo-72" value="Kembali ke Program Login" style="whiteSpace=wrap;html=1;rounded=0;" parent="WIyWlLk6GJQsqaUBKTNV-1" vertex="1">
          <mxGeometry x="590" y="-570" width="130" height="50" as="geometry" />
        </mxCell>
        <mxCell id="mSmKxec_PEiz_WWABHEc-1" value="" style="edgeStyle=orthogonalEdgeStyle;rounded=0;orthogonalLoop=1;jettySize=auto;html=1;exitX=0.5;exitY=1;exitDx=0;exitDy=0;" edge="1" parent="WIyWlLk6GJQsqaUBKTNV-1" source="oXb07rZDEVNdJx9yFHIo-50" target="mSmKxec_PEiz_WWABHEc-0">
          <mxGeometry relative="1" as="geometry">
            <mxPoint x="-85" y="-1720" as="sourcePoint" />
            <mxPoint x="-85" y="-1580" as="targetPoint" />
          </mxGeometry>
        </mxCell>
        <mxCell id="mSmKxec_PEiz_WWABHEc-3" value="" style="edgeStyle=orthogonalEdgeStyle;rounded=0;orthogonalLoop=1;jettySize=auto;html=1;" edge="1" parent="WIyWlLk6GJQsqaUBKTNV-1" source="mSmKxec_PEiz_WWABHEc-0" target="mSmKxec_PEiz_WWABHEc-2">
          <mxGeometry relative="1" as="geometry" />
        </mxCell>
        <mxCell id="mSmKxec_PEiz_WWABHEc-4" value="yes" style="edgeLabel;html=1;align=center;verticalAlign=middle;resizable=0;points=[];" vertex="1" connectable="0" parent="mSmKxec_PEiz_WWABHEc-3">
          <mxGeometry x="-0.6758" y="3" relative="1" as="geometry">
            <mxPoint x="1" as="offset" />
          </mxGeometry>
        </mxCell>
        <mxCell id="mSmKxec_PEiz_WWABHEc-8" style="edgeStyle=orthogonalEdgeStyle;rounded=0;orthogonalLoop=1;jettySize=auto;html=1;exitX=0;exitY=0.5;exitDx=0;exitDy=0;entryX=0.5;entryY=0;entryDx=0;entryDy=0;" edge="1" parent="WIyWlLk6GJQsqaUBKTNV-1" source="mSmKxec_PEiz_WWABHEc-0" target="o5AYfgIye7YQR3OT79Ui-74">
          <mxGeometry relative="1" as="geometry" />
        </mxCell>
        <mxCell id="mSmKxec_PEiz_WWABHEc-0" value="username in data_akun" style="rhombus;whiteSpace=wrap;html=1;" vertex="1" parent="WIyWlLk6GJQsqaUBKTNV-1">
          <mxGeometry x="-137.5" y="-1700" width="105" height="100" as="geometry" />
        </mxCell>
        <mxCell id="mSmKxec_PEiz_WWABHEc-5" style="edgeStyle=orthogonalEdgeStyle;rounded=0;orthogonalLoop=1;jettySize=auto;html=1;exitX=0.5;exitY=1;exitDx=0;exitDy=0;entryX=1;entryY=0.5;entryDx=0;entryDy=0;" edge="1" parent="WIyWlLk6GJQsqaUBKTNV-1" source="mSmKxec_PEiz_WWABHEc-2" target="oXb07rZDEVNdJx9yFHIo-60">
          <mxGeometry relative="1" as="geometry">
            <mxPoint x="50" y="-1790" as="targetPoint" />
            <Array as="points">
              <mxPoint x="39" y="-1492" />
              <mxPoint x="110" y="-1492" />
              <mxPoint x="110" y="-1820" />
            </Array>
          </mxGeometry>
        </mxCell>
        <mxCell id="mSmKxec_PEiz_WWABHEc-2" value="Username sudah ada. Pilih username yang lain." style="whiteSpace=wrap;html=1;" vertex="1" parent="WIyWlLk6GJQsqaUBKTNV-1">
          <mxGeometry x="-21.25" y="-1572.5" width="120" height="60" as="geometry" />
        </mxCell>
      </root>
    </mxGraphModel>
  </diagram>
</mxfile>
